<?xml version="1.0" encoding="UTF-8"?>
<!DOCTYPE svg PUBLIC "-//W3C//DTD SVG 1.1//EN" "http://www.w3.org/Graphics/SVG/1.1/DTD/svg11.dtd">
<!-- Creator: CorelDRAW X6 -->
<svg xmlns="http://www.w3.org/2000/svg" xml:space="preserve" width="512px" height="512px" version="1.1" style="shape-rendering:geometricPrecision; text-rendering:geometricPrecision; image-rendering:optimizeQuality; fill-rule:evenodd; clip-rule:evenodd"
viewBox="0 0 5120000 5120000"
 xmlns:xlink="http://www.w3.org/1999/xlink">
 <defs>
  <style type="text/css">
   <![CDATA[
    .fil0 {fill:#FEFEFE}
   ]]>
  </style>
 </defs>
 <g id="Layer_x0020_1">
  <metadata id="CorelCorpID_0Corel-Layer"/>
  <path class="fil0" d="M2011081 1078669l0 580124 -498899 0 0 893424 498899 0 0 2517775 1055850 0 0 -2517775 707754 0c0,-201780 81225,-683601 81225,-893424l-788979 0 0 -533706c0,-67760 17528,-113977 45591,-151666 21697,-29138 80150,-68788 128457,-68788l603321 0 0 -870192 -336473 0c-479033,0 -764447,-47610 -1083925,169158 -238076,161540 -412820,480120 -412820,875070z"/>
 </g>
</svg>
