<?xml version="1.0" encoding="UTF-8"?>
<!DOCTYPE svg PUBLIC "-//W3C//DTD SVG 1.1//EN" "http://www.w3.org/Graphics/SVG/1.1/DTD/svg11.dtd">
<!-- Creator: CorelDRAW X6 -->
<svg xmlns="http://www.w3.org/2000/svg" xml:space="preserve" width="512px" height="512px" version="1.1" style="shape-rendering:geometricPrecision; text-rendering:geometricPrecision; image-rendering:optimizeQuality; fill-rule:evenodd; clip-rule:evenodd"
viewBox="0 0 5120000 5120000"
 xmlns:xlink="http://www.w3.org/1999/xlink">
 <defs>
  <style type="text/css">
   <![CDATA[
    .fil0 {fill:#FEFEFE}
   ]]>
  </style>
 </defs>
 <g id="Layer_x0020_1">
  <metadata id="CorelCorpID_0Corel-Layer"/>
  <g id="_207212056">
   <path class="fil0" d="M356989 1185275c0,200327 37854,360852 110870,505584 96638,191599 230753,355229 417887,462781 215257,123650 428966,176516 704152,176516 49217,0 43843,-8787 88075,-9791 -17197,73855 -113055,207709 -60295,402816 48319,178819 126071,219768 187524,311505 -626364,0 -1149488,73370 -1572465,570533 -138615,162969 -207886,346407 -208442,591049l0 3839c484,230481 173682,425163 336804,542895 274347,197953 748431,326481 1148189,327001l56410 0c209965,-189 390131,-3720 597486,-62764 395919,-112760 718609,-304395 901172,-693817 115441,-246225 89752,-640443 -16547,-877432 -172784,-385324 -507273,-461505 -784219,-810782 -150343,-189591 -50575,-387048 117473,-521576 26339,-21083 45177,-38055 69898,-57331 154276,-120178 215091,-190040 321155,-354001 135662,-209635 205595,-558521 106028,-855853 -57673,-172182 -189131,-358607 -312131,-480498 -39933,-39555 -106347,-97240 -134575,-139406 221835,0 421182,36461 570840,-35882 49394,-23870 216792,-90886 251127,-120674l-1499402 0c-438037,449 -783180,134764 -1081456,432993 -91453,91453 -149682,165095 -211194,287824 -55110,109949 -104363,243981 -104363,404470zm1287228 2014896c598868,0 1084385,359682 1084385,803353 0,443647 -485517,803329 -1084385,803329 -598892,0 -1084397,-359682 -1084397,-803329 0,-443671 485505,-803353 1084397,-803353zm-690593 -1778072c-168520,-499608 -5079,-1005889 365068,-1130708 370123,-124878 806814,178961 975334,678593 168532,499620 5091,1005901 -365044,1130732 -370123,124855 -806837,-178985 -975357,-678616z"/>
   <polygon class="fil0" points="3938374,2251849 3155573,2251849 3155573,2564996 3938374,2564996 3938374,3347810 4251497,3347810 4251497,2564996 5034311,2564996 5034311,2251849 4251497,2251849 4251497,1469060 3938374,1469060 "/>
  </g>
 </g>
</svg>
