<?xml version="1.0" encoding="UTF-8"?>
<!DOCTYPE svg PUBLIC "-//W3C//DTD SVG 1.1//EN" "http://www.w3.org/Graphics/SVG/1.1/DTD/svg11.dtd">
<!-- Creator: CorelDRAW X6 -->
<svg xmlns="http://www.w3.org/2000/svg" xml:space="preserve" width="512px" height="512px" version="1.1" style="shape-rendering:geometricPrecision; text-rendering:geometricPrecision; image-rendering:optimizeQuality; fill-rule:evenodd; clip-rule:evenodd"
viewBox="0 0 5120000 5120000"
 xmlns:xlink="http://www.w3.org/1999/xlink">
 <defs>
  <style type="text/css">
   <![CDATA[
    .fil0 {fill:#FEFEFE}
   ]]>
  </style>
 </defs>
 <g id="Layer_x0020_1">
  <metadata id="CorelCorpID_0Corel-Layer"/>
  <g id="_209300088">
   <path class="fil0" d="M2837690 2112762l0 -432899 -1071440 0 0 3214297 1071440 0 0 -1850651c0,-246579 169382,-469088 336710,-539919 147532,-62457 330757,-78296 478962,-5197 210615,103890 299056,350765 299056,599222l0 1796545 1082247 0 0 -1764076c0,-413789 -56386,-750510 -272587,-1069409 -186319,-274796 -548352,-456580 -896247,-456580 -261131,0 -468096,21591 -675534,157819l-192107 154205c-17126,20658 -17350,25358 -38740,47835 -45874,48154 -93626,128197 -121760,148808z"/>
   <polygon class="fil0" points="99579,4894161 1181826,4894161 1181826,1679863 99579,1679863 "/>
   <path class="fil0" d="M34642 684179c0,319147 254824,562773 606061,562773 588604,0 767270,-614447 452198,-950046 -300733,-320316 -1058259,-183367 -1058259,387273z"/>
  </g>
 </g>
</svg>
