<?xml version="1.0" encoding="UTF-8"?>
<!DOCTYPE svg PUBLIC "-//W3C//DTD SVG 1.1//EN" "http://www.w3.org/Graphics/SVG/1.1/DTD/svg11.dtd">
<!-- Creator: CorelDRAW X6 -->
<svg xmlns="http://www.w3.org/2000/svg" xml:space="preserve" width="512px" height="512px" version="1.1" style="shape-rendering:geometricPrecision; text-rendering:geometricPrecision; image-rendering:optimizeQuality; fill-rule:evenodd; clip-rule:evenodd"
viewBox="0 0 5120000 5120000"
 xmlns:xlink="http://www.w3.org/1999/xlink">
 <defs>
  <style type="text/css">
   <![CDATA[
    .fil0 {fill:#FEFEFE}
   ]]>
  </style>
 </defs>
 <g id="Layer_x0020_1">
  <metadata id="CorelCorpID_0Corel-Layer"/>
  <path class="fil0" d="M2562303 1799722c-419222,0 -1045468,-209091 -1376756,-423793l-238359 -160512c-162520,-120520 -280607,-243898 -422139,-386966 -38126,-38539 -53776,-86209 -105189,-99945 -233221,440765 -157937,843534 135048,1209677 64677,80835 146705,122445 172642,157855 -167871,0 -333509,-66673 -444450,-125374 0,328655 92126,486663 234272,677412 111674,149871 391997,333025 574844,348237l-40665 16323c-23079,6000 -24272,4429 -48543,8409 -157465,25843 -260741,-1937 -355229,-1937 15343,184335 270958,473399 459308,577726 54449,30154 73158,43453 136430,68693 95044,37914 221753,71516 350139,71516 -74374,111059 -477309,287103 -629683,338989 -129556,44114 -250205,64961 -403844,86173 -73429,10146 -408273,26469 -470753,-3508 12343,34099 32634,37406 67607,57744 27626,16063 49914,28913 80599,44752 57012,29445 109181,63591 171036,91087 393048,174792 807073,285048 1253413,285048l405627 -27413c131741,-18295 253879,-39225 373277,-71150 123804,-33106 224894,-65658 336391,-108071l302658 -141780c204591,-121571 209788,-120485 392434,-257139l238052 -206386c21591,-21791 35764,-35126 57177,-56788l253442 -304973c262312,-363462 512765,-899684 567793,-1415083l24106 -420332c-980,-98729 -3413,-73890 83953,-143977 44091,-35386 75012,-61831 118406,-98114 64606,-54036 283194,-302091 299658,-372710 -117154,61984 -393840,145843 -558403,159544 23646,-32280 112193,-65374 253430,-236599 47268,-57295 161138,-236694 168225,-321816 -54095,12614 -97725,47433 -146705,69839 -143811,65764 -350529,155859 -514277,169477 -46878,-70004 -153745,-142158 -232678,-188953 -83351,-49429 -209812,-98823 -315615,-117426 -620837,-109193 -1156622,322938 -1226614,867652 -13264,103264 -16902,307808 19937,384592z"/>
 </g>
</svg>
