<?xml version="1.0" encoding="UTF-8"?>
<!DOCTYPE svg PUBLIC "-//W3C//DTD SVG 1.1//EN" "http://www.w3.org/Graphics/SVG/1.1/DTD/svg11.dtd">
<!-- Creator: CorelDRAW X6 -->
<svg xmlns="http://www.w3.org/2000/svg" xml:space="preserve" width="1.99333in" height="0.533331in" version="1.1" style="shape-rendering:geometricPrecision; text-rendering:geometricPrecision; image-rendering:optimizeQuality; fill-rule:evenodd; clip-rule:evenodd"
viewBox="0 0 1993 533"
 xmlns:xlink="http://www.w3.org/1999/xlink">
 <defs>
  <style type="text/css">
   <![CDATA[
    .str1 {stroke:#FEFEFE;stroke-width:6.94488}
    .str0 {stroke:#E70101;stroke-width:16.6654}
    .fil3 {fill:#080808}
    .fil2 {fill:#E70101}
    .fil1 {fill:#FEFEFE;fill-rule:nonzero}
    .fil4 {fill:#080808;fill-rule:nonzero}
    .fil0 {fill:#E70101;fill-rule:nonzero}
   ]]>
  </style>
 </defs>
 <g id="Layer_x0020_1">
  <metadata id="CorelCorpID_0Corel-Layer"/>
  <path class="fil0" d="M349 208c0,70 -20,123 -60,161 -40,37 -97,56 -172,56l-120 0 0 -424 133 0c69,0 123,18 161,55 38,37 57,88 57,153zm-93 2c0,-91 -40,-137 -121,-137l-48 0 0 276 39 0c87,0 130,-47 130,-140zm311 214l-153 0 0 -424 244 0 0 74 -154 0 0 93 144 0 0 74 -144 0 0 109 63 0 0 74zm320 -113c0,-8 -2,-16 -7,-22 -5,-7 -11,-13 -21,-19 -9,-6 -27,-16 -55,-29 -26,-12 -45,-24 -58,-35 -13,-11 -23,-24 -31,-39 -8,-15 -12,-32 -12,-52 0,-38 13,-67 38,-89 25,-22 61,-32 106,-32 22,0 43,3 63,8 20,5 41,13 63,22l-29 70c-23,-9 -41,-16 -56,-19 -15,-4 -29,-6 -44,-6 -17,0 -30,4 -39,12 -9,8 -14,18 -14,31 0,8 2,15 6,21 4,6 10,12 18,17 8,6 27,15 57,30 40,19 67,38 82,57 15,19 22,42 22,70m54 -1l0 -306 90 0 0 308 -90 -2zm335 -120l168 0 0 123c-124,0 -337,3 -342,-12 0,0 -6,-52 -6,-85 0,-69 20,-122 59,-160 39,-38 93,-57 163,-57 44,0 86,9 126,26l-30 72c-31,-15 -63,-23 -97,-23 -39,0 -70,13 -93,39 -23,26 -35,61 -35,105 0,33 5,61 15,83 4,8 -4,6 4,6 13,0 128,1 146,-4 0,0 3,-24 3,-38l-80 0 0 -75zm626 124l-183 1 -120 -208 -3 0c4,57 6,97 6,121l0 79 -80 4 0 -307 114 0 184 291 2 0c-3,-55 -4,-68 -4,-90l0 -201 84 0 0 310z"/>
  <path class="fil1" d="M1010 387c-5,0 -10,2 -12,6 -3,4 -4,10 -4,17 0,15 6,22 17,22 5,0 10,-1 17,-4l0 12c-6,2 -12,3 -18,3 -10,0 -17,-3 -22,-9 -5,-6 -8,-14 -8,-26 0,-7 1,-13 4,-18 3,-5 6,-9 11,-12 5,-3 10,-4 17,-4 7,0 13,2 20,5l-5 12c-3,-1 -5,-2 -8,-3 -3,-1 -5,-1 -7,-1zm46 19l5 0c5,0 8,-1 10,-2 2,-1 3,-4 3,-7 0,-3 -1,-5 -3,-7 -2,-1 -6,-2 -10,-2l-4 0 0 18zm0 12l0 26 -14 0 0 -67 20 0c9,0 16,2 20,5 4,3 7,8 7,15 0,4 -1,7 -3,11 -2,3 -5,5 -9,7 10,15 17,25 20,29l-16 0 -16 -26 -8 0zm87 26l-39 0 0 -67 39 0 0 12 -24 0 0 15 23 0 0 12 -23 0 0 17 24 0 0 12zm55 0l-5 -16 -25 0 -5 16 -15 0 24 -68 17 0 24 68 -15 0zm-8 -28c-5,-15 -7,-23 -8,-25 -1,-2 -1,-3 -1,-5 -1,4 -4,14 -9,29l18 0zm51 28l-14 0 0 -55 -18 0 0 -12 51 0 0 12 -18 0 0 55zm29 0l0 -67 14 0 0 67 -14 0zm70 -67l14 0 -23 67 -16 0 -23 -67 14 0 13 40c1,2 1,5 2,8 1,3 1,5 1,7 0,-3 1,-8 3,-15l13 -40zm62 67l-39 0 0 -67 39 0 0 12 -24 0 0 15 23 0 0 12 -23 0 0 17 24 0 0 12zm101 0l-17 0 -5 -5c-6,4 -12,6 -20,6 -7,0 -13,-2 -18,-5 -4,-3 -7,-8 -7,-14 0,-4 1,-8 3,-11 2,-3 5,-6 10,-8 -2,-3 -4,-5 -5,-8 -1,-2 -2,-5 -2,-8 0,-5 2,-8 5,-11 4,-3 8,-4 14,-4 6,0 10,1 14,4 3,3 5,6 5,11 0,4 -1,7 -3,10 -2,3 -6,6 -10,9l13 13c2,-4 4,-8 6,-14l15 0c-1,4 -3,8 -5,12 -2,4 -4,7 -7,10l14 13zm-52 -19c0,3 1,5 3,6 2,2 5,2 8,2 4,0 7,-1 10,-3l-15 -15c-2,1 -3,3 -4,4 -1,1 -2,3 -2,5zm16 -33c0,-2 -1,-3 -2,-4 -1,-1 -3,-1 -4,-1 -2,0 -4,0 -5,1 -1,1 -2,2 -2,4 0,3 1,6 4,9 3,-1 5,-3 6,-4 1,-1 2,-3 2,-5zm107 52l-39 0 0 -67 39 0 0 12 -24 0 0 15 23 0 0 12 -23 0 0 17 24 0 0 12zm28 0l-14 0 0 -67 39 0 0 12 -25 0 0 17 23 0 0 12 -23 0 0 27zm52 0l-14 0 0 -67 39 0 0 12 -25 0 0 17 23 0 0 12 -23 0 0 27zm76 0l-39 0 0 -67 39 0 0 12 -24 0 0 15 23 0 0 12 -23 0 0 17 24 0 0 12zm43 -56c-5,0 -10,2 -12,6 -3,4 -4,10 -4,17 0,15 6,22 17,22 5,0 10,-1 17,-4l0 12c-6,2 -12,3 -18,3 -10,0 -17,-3 -22,-9 -5,-6 -8,-14 -8,-26 0,-7 1,-13 4,-18 3,-5 6,-9 11,-12 5,-3 10,-4 17,-4 7,0 13,2 20,5l-5 12c-3,-1 -5,-2 -8,-3 -3,-1 -5,-1 -7,-1zm57 56l-14 0 0 -55 -18 0 0 -12 51 0 0 12 -18 0 0 55zm29 0l0 -67 14 0 0 67 -14 0zm70 -67l14 0 -23 67 -16 0 -23 -67 14 0 13 40c1,2 1,5 2,8 1,3 1,5 1,7 0,-3 1,-8 3,-15l13 -40zm62 67l-39 0 0 -67 39 0 0 12 -24 0 0 15 23 0 0 12 -23 0 0 17 24 0 0 12z"/>
  <path class="fil2" d="M897 290l1092 0 0 29c0,0 0,1 -1,1l-1091 0 0 -29z"/>
  <circle class="fil3 str0" cx="771" cy="379" r="140"/>
  <path class="fil1 str1" d="M758 359c8,-15 16,-22 32,-22 17,0 32,13 32,30 0,30 -32,59 -63,89 -32,-30 -63,-59 -63,-89 0,-16 14,-30 32,-30 16,0 24,7 32,22z"/>
  <path class="fil4 str1" d="M780 340c8,-15 16,-22 32,-22 17,0 32,13 32,30 0,30 -32,59 -63,89 -32,-30 -63,-59 -63,-89 0,-16 14,-30 32,-30 16,0 24,7 32,22z"/>
 </g>
</svg>
