<?xml version="1.0" encoding="UTF-8"?>
<!DOCTYPE svg PUBLIC "-//W3C//DTD SVG 1.1//EN" "http://www.w3.org/Graphics/SVG/1.1/DTD/svg11.dtd">
<!-- Creator: CorelDRAW X6 -->
<svg xmlns="http://www.w3.org/2000/svg" xml:space="preserve" width="1.65in" height="0.383331in" version="1.1" style="shape-rendering:geometricPrecision; text-rendering:geometricPrecision; image-rendering:optimizeQuality; fill-rule:evenodd; clip-rule:evenodd"
viewBox="0 0 1650 383"
 xmlns:xlink="http://www.w3.org/1999/xlink">
 <defs>
  <style type="text/css">
   <![CDATA[
    .str1 {stroke:#FEFEFE;stroke-width:6.94488}
    .str0 {stroke:#E70101;stroke-width:16.6654}
    .fil2 {fill:none}
    .fil4 {fill:#FEFEFE}
    .fil5 {fill:black}
    .fil3 {fill:#E70101}
    .fil1 {fill:#FEFEFE;fill-rule:nonzero}
    .fil0 {fill:#E70101;fill-rule:nonzero}
   ]]>
  </style>
 </defs>
 <g id="Layer_x0020_1">
  <metadata id="CorelCorpID_0Corel-Layer"/>
  <path class="fil0" d="M1397 -1l-108 380 74 0 26 -100 102 0 27 100 77 0 -106 -380 -92 0zm26 137c5,-22 12,-53 17,-77l1 0c5,23 11,54 17,78l23 87 -81 0 23 -87z"/>
  <path class="fil1" d="M574 300l0 -67 14 0 0 67 -14 0zm28 0l0 -67 13 0 27 45 0 -45 12 0 0 67 -13 0 -27 -44 0 44 -12 0zm69 0l0 -67 46 0 0 11 -32 0 0 16 28 0 0 11 -28 0 0 28 -14 0zm56 -33c0,-7 1,-13 3,-17 2,-3 4,-6 6,-9 3,-3 5,-5 9,-6 4,-2 9,-3 14,-3 10,0 18,3 24,9 6,6 9,15 9,25 0,11 -3,19 -9,25 -6,6 -14,9 -23,9 -10,0 -18,-3 -24,-9 -6,-6 -9,-14 -9,-25zm14 0c0,8 2,13 5,17 3,4 8,6 13,6 5,0 10,-2 13,-6 3,-4 5,-10 5,-17 0,-8 -2,-13 -5,-17 -3,-4 -8,-6 -13,-6 -6,0 -10,2 -13,6 -3,4 -5,10 -5,17zm63 33l0 -67 28 0c7,0 12,1 16,2 3,1 6,3 8,6 2,3 3,7 3,11 0,5 -1,9 -4,12 -3,3 -7,5 -13,6 3,2 5,4 7,6 2,2 4,6 8,11l8 13 -16 0 -10 -15c-3,-5 -6,-8 -7,-10 -1,-1 -3,-2 -4,-3 -1,0 -4,-1 -7,-1l-3 0 0 28 -14 0zm14 -38l10 0c6,0 10,0 12,-1 2,-1 3,-1 4,-3 1,-1 1,-3 1,-5 0,-2 -1,-4 -2,-5 -1,-1 -3,-2 -5,-3 -1,0 -4,0 -10,0l-11 0 0 17zm56 38l0 -67 20 0 12 45 12 -45 20 0 0 67 -12 0 0 -53 -13 53 -13 0 -13 -53 0 53 -12 0zm140 0l-15 0 -6 -15 -27 0 -6 15 -14 0 26 -67 14 0 27 67zm-25 -26l-9 -25 -9 25 18 0zm42 26l0 -55 -20 0 0 -11 53 0 0 11 -20 0 0 55 -14 0zm43 0l0 -67 14 0 0 67 -14 0zm26 -33c0,-7 1,-13 3,-17 2,-3 4,-6 6,-9 3,-3 5,-5 9,-6 4,-2 9,-3 14,-3 10,0 18,3 24,9 6,6 9,15 9,25 0,11 -3,19 -9,25 -6,6 -14,9 -23,9 -10,0 -18,-3 -24,-9 -6,-6 -9,-14 -9,-25zm14 0c0,8 2,13 5,17 3,4 8,6 13,6 5,0 10,-2 13,-6 3,-4 5,-10 5,-17 0,-8 -2,-13 -5,-17 -3,-4 -8,-6 -13,-6 -6,0 -10,2 -13,6 -3,4 -5,10 -5,17zm63 33l0 -67 13 0 27 45 0 -45 12 0 0 67 -13 0 -27 -44 0 44 -12 0z"/>
  <path class="fil1" d="M605 381l21 -55 8 0 22 55 -8 0 -6 -17 -23 0 -6 17 -8 0zm16 -22l19 0 -6 -15c-2,-5 -3,-8 -4,-11 -1,4 -2,7 -3,11l-6 16zm45 22l0 -55 24 0c5,0 9,0 11,1 3,1 5,3 6,5 2,2 2,5 2,8 0,4 -1,7 -4,10 -3,3 -6,4 -12,5 2,1 3,2 4,3 2,2 4,4 6,7l10 15 -9 0 -7 -11c-2,-3 -4,-6 -5,-8 -1,-2 -3,-3 -4,-4 -1,-1 -2,-1 -3,-1 -1,0 -2,0 -4,0l-8 0 0 24 -7 0zm7 -31l16 0c3,0 6,0 8,-1 2,-1 3,-2 4,-3 1,-2 1,-3 1,-5 0,-3 -1,-5 -3,-6 -2,-2 -5,-2 -9,-2l-17 0 0 18zm90 11l7 2c-2,6 -4,10 -8,14 -4,3 -9,5 -15,5 -6,0 -11,-1 -15,-4 -4,-2 -7,-6 -9,-10 -2,-5 -3,-9 -3,-15 0,-6 1,-11 3,-15 2,-4 5,-7 9,-10 4,-2 9,-3 13,-3 6,0 10,1 14,4 4,3 6,7 8,12l-7 2c-1,-4 -3,-7 -6,-9 -2,-2 -5,-3 -9,-3 -4,0 -8,1 -11,3 -3,2 -5,5 -6,8 -1,3 -2,7 -2,10 0,5 1,9 2,12 1,3 3,6 6,8 3,2 6,3 9,3 4,0 8,-1 10,-3 3,-2 5,-6 6,-10zm19 19l0 -55 7 0 0 23 29 0 0 -23 7 0 0 55 -7 0 0 -26 -29 0 0 26 -7 0zm59 0l0 -55 7 0 0 55 -7 0zm37 0l0 -48 -18 0 0 -6 44 0 0 6 -18 0 0 48 -7 0zm36 0l0 -55 40 0 0 6 -33 0 0 17 30 0 0 6 -30 0 0 19 34 0 0 6 -41 0zm93 -19l7 2c-2,6 -4,10 -8,14 -4,3 -9,5 -15,5 -6,0 -11,-1 -15,-4 -4,-2 -7,-6 -9,-10 -2,-5 -3,-9 -3,-15 0,-6 1,-11 3,-15 2,-4 5,-7 9,-10 4,-2 9,-3 13,-3 6,0 10,1 14,4 4,3 6,7 8,12l-7 2c-1,-4 -3,-7 -6,-9 -2,-2 -5,-3 -9,-3 -4,0 -8,1 -11,3 -3,2 -5,5 -6,8 -1,3 -2,7 -2,10 0,5 1,9 2,12 1,3 3,6 6,8 3,2 6,3 9,3 4,0 8,-1 10,-3 3,-2 5,-6 6,-10zm33 19l0 -48 -18 0 0 -6 44 0 0 6 -18 0 0 48 -7 0zm72 -55l7 0 0 32c0,5 -1,10 -2,13 -1,3 -4,6 -7,8 -3,2 -8,3 -13,3 -5,0 -9,-1 -13,-3 -3,-2 -6,-4 -7,-8 -1,-3 -2,-8 -2,-14l0 -32 7 0 0 32c0,5 0,8 1,10 1,2 2,4 5,5 2,1 5,2 8,2 5,0 9,-1 11,-4 2,-2 3,-7 3,-14l0 -32zm22 55l0 -55 24 0c5,0 9,0 11,1 3,1 5,3 6,5 2,2 2,5 2,8 0,4 -1,7 -4,10 -3,3 -6,4 -12,5 2,1 3,2 4,3 2,2 4,4 6,7l10 15 -9 0 -7 -11c-2,-3 -4,-6 -5,-8 -1,-2 -3,-3 -4,-4 -1,-1 -2,-1 -3,-1 -1,0 -2,0 -4,0l-8 0 0 24 -7 0zm7 -31l16 0c3,0 6,0 8,-1 2,-1 3,-2 4,-3 1,-2 1,-3 1,-5 0,-3 -1,-5 -3,-6 -2,-2 -5,-2 -9,-2l-17 0 0 18zm51 31l0 -55 40 0 0 6 -33 0 0 17 30 0 0 6 -30 0 0 19 34 0 0 6 -41 0z"/>
  <circle class="fil2 str0" cx="136" cy="148" r="124"/>
  <rect class="fil3" x="255" y="156" width="978" height="15"/>
  <rect class="fil3" x="1152" y="1" width="82" height="170"/>
  <circle class="fil2 str1" cx="166" cy="98" r="22"/>
  <path class="fil2 str1" d="M165 192c12,0 38,1 39,0 0,-1 0,-29 0,-38 0,-21 -17,-37 -38,-37 -21,0 -38,17 -38,37 0,11 1,20 1,38 0,1 27,0 37,0z"/>
  <rect class="fil4" x="56" y="149" width="100" height="53"/>
  <rect class="fil5" x="66" y="159" width="30" height="7"/>
  <rect class="fil5" x="65" y="169" width="30" height="7"/>
  <rect class="fil5" x="65" y="179" width="30" height="13"/>
 </g>
</svg>
