<?xml version="1.0" encoding="UTF-8"?>
<!DOCTYPE svg PUBLIC "-//W3C//DTD SVG 1.1//EN" "http://www.w3.org/Graphics/SVG/1.1/DTD/svg11.dtd">
<!-- Creator: CorelDRAW X6 -->
<svg xmlns="http://www.w3.org/2000/svg" xml:space="preserve" width="365px" height="100px" version="1.1" style="shape-rendering:geometricPrecision; text-rendering:geometricPrecision; image-rendering:optimizeQuality; fill-rule:evenodd; clip-rule:evenodd"
viewBox="0 0 8169628 2237638"
 xmlns:xlink="http://www.w3.org/1999/xlink">
 <defs>
  <style type="text/css">
   <![CDATA[
    .fil1 {fill:#ED3237}
    .fil2 {fill:black}
    .fil0 {fill:#E70101}
   ]]>
  </style>
 </defs>
 <g id="Layer_x0020_1">
  <metadata id="CorelCorpID_0Corel-Layer"/>
  <g id="_208951528">
   <path class="fil0" d="M1170312 2113084c0,0 -154441,-18751 -154441,-18751 0,0 61415,50888 61415,50888 -472105,72759 -557292,-19610 -557292,-19610 0,0 -9157,21246 -9157,21246 191000,87536 582184,18355 582184,18355 0,0 -11074,72426 -11074,72426 0,0 88364,-124554 88364,-124554z"/>
   <path class="fil1" d="M380647 1844366c22736,51670 117501,195313 172796,163270 0,0 -115298,-130617 -113975,-213569 0,0 -92089,-25304 -58821,50300zm324065 -877383c0,0 13386,-153915 133841,-294449 120455,-140524 23418,-371391 -26772,-398163 0,0 66920,214137 -53534,311169 -120455,97037 -66915,368057 -53534,381444zm-199277 494658c-26840,-3427 -61451,48873 -61451,48873 0,0 -23168,53602 -23168,53602 -42565,-6912 -66462,9797 -93755,39481 -28736,31252 -139753,32392 -139753,32392 2485,-12824 123778,-42200 121601,-160624 -1761,-95146 28877,-224554 28877,-224554 68863,-163145 167234,-117001 167234,-117001 28215,35179 23975,61311 23975,61311 -107860,-8500 -119022,76775 -119022,76775 -33476,83526 32799,144263 49597,155946 15563,10829 57628,979 86218,-55326 -2599,48430 -40351,89125 -40351,89125zm561511 -165140c-170755,-172051 -149795,-379709 -149795,-379709 -32090,204954 -15897,353307 -5214,417029 2979,11131 5375,22652 6912,34674 0,0 -3110,-12048 -6912,-34674 -35882,-134346 -167072,-202892 -167072,-202892 26757,187380 -56878,187443 -56878,187443 -3354,-97026 -130497,-273599 -130497,-273599 -83651,-213304 79463,-510258 79463,-510258 -577168,489346 -510253,982879 -510253,982879 -62738,-29283 -79463,-342973 -79463,-342973 -184323,754715 206486,998271 556849,991416 -150873,-53701 -228487,-144633 -228487,-144633 0,0 -195496,-200371 -119173,-367610 -4464,-1292 -4162,-3979 3531,-7349 -1245,2438 -2412,4891 -3531,7349 10480,3042 47383,-1563 77853,-22965 32153,-22574 48940,-53696 112678,-43336 0,0 7287,-51831 7287,-51831 0,0 40258,-63608 67098,-60175 0,0 13423,-18017 17204,-29580 0,0 15339,-18652 15339,-18652 0,0 180604,-18746 215158,140722 61238,282626 166624,367162 208090,401065 13907,11370 30762,20392 46820,29465 646,-818 1328,-1625 1969,-2453 244254,-314518 169796,-569605 41023,-699352zm-449234 -891645c0,0 230878,-160608 -56878,-404856 0,0 157264,237566 56878,404856z"/>
  </g>
  <path class="fil2" d="M1812812 943924l0 297283 -220627 0 0 -816724 267536 0c221966,0 332946,80473 332946,241222 0,94771 -46148,167806 -138440,219674l237982 355828 -250379 0 -173145 -297283 -55873 0zm0 -165900l41377 0c77041,0 115559,-33945 115559,-102209 0,-56253 -37752,-84286 -113267,-84286l-43669 0 0 186495zm970040 463183l-484924 0 0 -816724 484924 0 0 176963 -264296 0 0 128518 244660 0 0 177156 -244660 0 0 154269 264296 0 0 179818z"/>
  <path class="fil2" d="M3552770 815588c0,136154 -37565,241222 -112699,315023 -74937,73796 -180391,110595 -316351,110595l-264296 0 0 -816724 282599 0c131200,0 232456,33559 303773,100490 71317,67124 106975,163999 106975,290616zm-229206 7818c0,-74942 -14688,-130435 -44242,-166473 -29746,-36231 -74749,-54347 -135008,-54347l-64264 0 0 457656 49201 0c67118,0 116126,-19449 147399,-58352 31278,-38898 46914,-98396 46914,-178484z"/>
  <path class="fil2" d="M2184849 1599518c0,91339 -26892,161707 -80666,211476 -53774,49768 -130242,74556 -229399,74556l-61977 0 0 270974 -220627 0 0 -816729 282605 0c103162,0 180771,22501 232451,67504 51868,45195 77614,109267 77614,192219zm-372042 106209l40237 0c33184,0 59493,-9339 79140,-28028 19444,-18501 29174,-44242 29174,-77036 0,-55113 -30512,-82765 -91531,-82765l-57019 0 0 187828zm918552 450797l-484924 0 0 -816729 484924 0 0 176963 -264296 0 0 128523 244660 0 0 177151 -244660 0 0 154269 264296 0 0 179823zm667043 -557006c0,91339 -26887,161707 -80666,211476 -53774,49768 -130237,74556 -229399,74556l-61972 0 0 270974 -220632 0 0 -816729 282605 0c103162,0 180771,22501 232451,67504 51868,45195 77614,109267 77614,192219zm-372037 106209l40237 0c33179,0 59488,-9339 79135,-28028 19449,-18501 29174,-44242 29174,-77036 0,-55113 -30512,-82765 -91531,-82765l-57014 0 0 187828zm1026293 -106209c0,91339 -26887,161707 -80666,211476 -53774,49768 -130237,74556 -229399,74556l-61972 0 0 270974 -220632 0 0 -816729 282605 0c103162,0 180771,22501 232451,67504 51868,45195 77614,109267 77614,192219zm-372037 106209l40237 0c33179,0 59488,-9339 79135,-28028 19449,-18501 29174,-44242 29174,-77036 0,-55113 -30512,-82765 -91531,-82765l-57014 0 0 187828z"/>
  <polygon class="fil2" points="4603763,2156519 4118834,2156519 4118834,1339790 4603763,1339790 4603763,1516753 4339466,1516753 4339466,1645276 4584121,1645276 4584121,1822427 4339466,1822427 4339466,1976696 4603763,1976696 "/>
  <path class="fil2" d="M4895139 1859236l0 297283 -220632 0 0 -816729 267541 0c221961,0 332941,80473 332941,241222 0,94776 -46143,167812 -138435,219679l237977 355828 -250374 0 -173151 -297283 -55868 0zm0 -165905l41377 0c77036,0 115553,-33945 115553,-102209 0,-56253 -37752,-84286 -113267,-84286l-43664 0 0 186495zm1220606 462995l98396 0 -48055 -771153 -127002 0 -137294 372990c-34325,97256 -61785,181922 -82374,259723l-2292 0c-20595,-80088 -45768,-164754 -77801,-259723l-131580 -372990 -126992 0 -53779 771153 94964 0 20595 -330659c6865,-116699 12589,-244842 14871,-340952l2292 0c21736,91531 51487,189928 88099,299767l125856 367271 75510 0 136159 -374136c38898,-106407 69785,-203657 97250,-292902l2287 0c0,94964 6865,225398 12584,332946l18308 338665zm546896 -443926l-298616 0 0 -243701 316919 0 0 -83526 -417607 0 0 771153 434770 0 0 -83526 -334082 0 0 -278021 298616 0 0 -82380zm61790 441640c50336,5912 108688,9344 180771,9344 149884,0 268870,-39096 342098,-111173 70936,-70942 110980,-173911 110980,-299767 0,-124710 -40044,-213950 -109840,-276880 -67504,-61785 -169327,-96110 -312346,-96110 -78942,0 -151029,6865 -211663,17162l0 757423zm99537 -685341c26314,-5719 65217,-10297 116699,-10297 210522,0 313497,115559 312356,297481 0,208231 -114418,327222 -328373,327222 -38898,0 -75515,-1146 -100683,-4578l0 -609826zm558339 -83526l0 771153 100683 0 0 -771153 -100683 0z"/>
  <path class="fil2" d="M7980841 1913771l82380 242556 106407 0 -263156 -771153 -118991 0 -263150 771153 102969 0 80088 -242556 273453 0zm-252853 -77801l75510 -223106c16022,-46909 27465,-94969 38903,-139586l2287 0c11443,44617 22882,90385 40044,140727l76661 221966 -233404 0z"/>
 </g>
</svg>
