<?xml version="1.0" encoding="UTF-8"?>
<!DOCTYPE svg PUBLIC "-//W3C//DTD SVG 1.1//EN" "http://www.w3.org/Graphics/SVG/1.1/DTD/svg11.dtd">
<!-- Creator: CorelDRAW X6 -->
<svg xmlns="http://www.w3.org/2000/svg" xml:space="preserve" width="1.68in" height="0.466661in" version="1.1" style="shape-rendering:geometricPrecision; text-rendering:geometricPrecision; image-rendering:optimizeQuality; fill-rule:evenodd; clip-rule:evenodd"
viewBox="0 0 1680 467"
 xmlns:xlink="http://www.w3.org/1999/xlink">
 <defs>
  <style type="text/css">
   <![CDATA[
    .str1 {stroke:#FEFEFE;stroke-width:6.94488}
    .str0 {stroke:#E70101;stroke-width:16.6654}
    .fil2 {fill:none}
    .fil4 {fill:#FEFEFE}
    .fil1 {fill:#E70101}
    .fil3 {fill:#FEFEFE;fill-rule:nonzero}
    .fil0 {fill:#E70101;fill-rule:nonzero}
   ]]>
  </style>
 </defs>
 <g id="Layer_x0020_1">
  <metadata id="CorelCorpID_0Corel-Layer"/>
  <path class="fil0" d="M335 2l0 262c0,30 -7,56 -20,79 -13,23 -33,40 -58,52 -25,12 -55,18 -90,18 -52,0 -92,-13 -121,-40 -29,-27 -43,-63 -43,-110l0 -261 86 0 0 248c0,31 6,54 19,69 13,15 33,22 62,22 28,0 48,-7 61,-22 13,-15 19,-38 19,-69l0 -248 86 0zm345 275l-89 0 -22 -23 -19 31 -90 0 57 -87 -126 -196 95 0 87 146 86 -146 92 0 -127 201 55 75z"/>
  <path class="fil1" d="M592 269l806 0 0 14c0,0 0,0 0,0l-806 0 0 -15z"/>
  <circle class="fil2 str0" cx="1534" cy="273" r="138"/>
  <path class="fil3" d="M460 311l0 50c0,6 -1,11 -4,15 -3,4 -6,8 -11,10 -5,2 -10,3 -17,3 -10,0 -18,-3 -23,-8 -5,-5 -8,-12 -8,-21l0 -50 16 0 0 47c0,6 1,10 4,13 2,3 6,4 12,4 5,0 9,-1 12,-4 2,-3 4,-7 4,-13l0 -47 16 0zm64 56c0,7 -3,12 -8,16 -5,4 -12,6 -21,6 -8,0 -15,-2 -22,-5l0 -15c5,2 10,4 13,5 4,1 7,1 10,1 4,0 6,-1 8,-2 2,-1 3,-3 3,-6 0,-2 0,-3 -1,-4 -1,-1 -2,-2 -4,-3 -2,-1 -5,-3 -10,-5 -5,-2 -8,-4 -11,-6 -2,-2 -4,-4 -6,-7 -1,-3 -2,-6 -2,-9 0,-7 2,-12 7,-16 5,-4 11,-6 19,-6 4,0 8,0 11,1 4,1 7,2 11,4l-5 13c-4,-2 -8,-3 -10,-4 -3,-1 -5,-1 -8,-1 -3,0 -5,1 -7,2 -2,1 -2,3 -2,6 0,1 0,3 1,4 1,1 2,2 3,3 1,1 5,3 10,5 7,3 12,7 15,10 3,3 4,8 4,13zm58 21l-44 0 0 -77 44 0 0 13 -28 0 0 17 26 0 0 13 -26 0 0 20 28 0 0 13zm32 -43l5 0c5,0 9,-1 11,-3 2,-2 4,-4 4,-8 0,-4 -1,-6 -4,-8 -3,-2 -6,-2 -12,-2l-5 0 0 21zm0 13l0 29 -16 0 0 -77 22 0c10,0 18,2 23,6 5,4 8,10 8,17 0,5 -1,9 -4,12 -2,4 -6,6 -11,8 12,17 19,28 23,33l-18 0 -18 -29 -9 0zm127 29l-44 0 0 -77 44 0 0 13 -28 0 0 17 26 0 0 13 -26 0 0 20 28 0 0 13zm78 0l-19 0 -18 -29 -18 29 -17 0 25 -40 -24 -37 18 0 17 28 16 -28 18 0 -24 38 26 39zm26 -41l5 0c5,0 9,-1 11,-3 2,-2 4,-5 4,-9 0,-4 -1,-7 -3,-8 -2,-2 -5,-3 -10,-3l-7 0 0 23zm37 -12c0,8 -3,15 -8,19 -5,4 -13,7 -22,7l-7 0 0 27 -16 0 0 -77 25 0c9,0 16,2 21,6 5,4 7,10 7,18zm59 53l-44 0 0 -77 44 0 0 13 -28 0 0 17 26 0 0 13 -26 0 0 20 28 0 0 13zm32 -43l5 0c5,0 9,-1 11,-3 2,-2 4,-4 4,-8 0,-4 -1,-6 -4,-8 -3,-2 -6,-2 -12,-2l-5 0 0 21zm0 13l0 29 -16 0 0 -77 22 0c10,0 18,2 23,6 5,4 8,10 8,17 0,5 -1,9 -4,12 -2,4 -6,6 -11,8 12,17 19,28 23,33l-18 0 -18 -29 -9 0zm55 29l0 -77 16 0 0 77 -16 0zm80 0l-44 0 0 -77 44 0 0 13 -28 0 0 17 26 0 0 13 -26 0 0 20 28 0 0 13zm84 0l-21 0 -33 -58 0 0c1,10 1,18 1,22l0 36 -15 0 0 -77 21 0 33 58 0 0c-1,-10 -1,-17 -1,-21l0 -36 15 0 0 77zm52 -64c-6,0 -11,2 -14,7 -3,5 -5,11 -5,19 0,17 6,26 19,26 5,0 12,-1 20,-4l0 14c-6,3 -13,4 -21,4 -11,0 -20,-3 -26,-10 -6,-7 -9,-17 -9,-29 0,-8 1,-15 4,-21 3,-6 7,-11 13,-14 5,-3 12,-5 19,-5 7,0 15,2 22,5l-5 13c-3,-1 -6,-3 -9,-4 -3,-1 -6,-2 -9,-2zm80 64l-44 0 0 -77 44 0 0 13 -28 0 0 17 26 0 0 13 -26 0 0 20 28 0 0 13z"/>
  <polygon class="fil0" points="382,409 346,466 440,466 475,408 "/>
  <path class="fil2 str1" d="M1501 276c-14,-8 -22,-23 -22,-39 0,-25 21,-46 46,-46 25,0 46,21 46,46 0,11 -4,21 -10,29"/>
  <polygon class="fil4" points="1494,298 1511,317 1512,233 1518,228 1524,227 1531,231 1530,273 1540,269 1549,274 1552,280 1559,278 1565,279 1572,287 1578,285 1585,286 1590,291 1590,334 1585,345 1509,345 1481,311 1481,303 1485,299 "/>
 </g>
</svg>
